<?xml version="1.0" encoding="UTF-8"?>
<svg width="102px" height="102px" viewBox="0 0 102 102" version="1.1" xmlns="http://www.w3.org/2000/svg" xmlns:xlink="http://www.w3.org/1999/xlink">
    <title>Building Icon</title>
    <g id="Landing-page" stroke="none" stroke-width="1" fill="none" fill-rule="evenodd">
        <g id="Landing-Page-1" transform="translate(-1341.000000, -1120.000000)" fill="#403E3B">
            <path d="M1392,1120 C1420.16652,1120 1443,1142.83348 1443,1171 C1443,1199.16652 1420.16652,1222 1392,1222 C1363.83348,1222 1341,1199.16652 1341,1171 C1341,1142.83348 1363.83348,1120 1392,1120 Z M1394.11174,1159.10517 C1393.9538,1158.99636 1393.75183,1158.97019 1393.57064,1159.03505 L1393.57064,1159.03505 L1382.14127,1163.12215 C1381.67427,1163.28933 1381.36349,1163.72601 1381.36364,1164.21483 L1381.36364,1164.21483 L1381.36364,1179.67514 L1379,1179.67514 L1379,1182 L1405,1182 L1405,1179.67514 L1402.63636,1179.67514 L1402.63636,1168.88896 C1402.63649,1168.38841 1402.31082,1167.94399 1401.828,1167.78582 L1401.828,1167.78582 L1394.36364,1165.3389 L1394.36364,1159.58139 C1394.36369,1159.39173 1394.26967,1159.21398 1394.11174,1159.10517 Z M1392,1162.07015 L1392,1179.67514 L1383.72727,1179.67514 L1383.72727,1165.0297 L1392,1162.07015 Z M1394.36364,1167.7893 L1400.27273,1169.72707 L1400.27273,1179.67514 L1394.36364,1179.67514 L1394.36364,1167.7893 Z" id="Building-Icon"></path>
        </g>
    </g>
</svg>