<?xml version="1.0" encoding="UTF-8"?>
<svg width="102px" height="102px" viewBox="0 0 102 102" version="1.1" xmlns="http://www.w3.org/2000/svg" xmlns:xlink="http://www.w3.org/1999/xlink">
    <title>Sketching Icon</title>
    <g id="Landing-page" stroke="none" stroke-width="1" fill="none" fill-rule="evenodd">
        <g id="Landing-Page-1" transform="translate(-477.000000, -1120.000000)" fill="#403E3B">
            <path d="M528,1120 C556.166522,1120 579,1142.83348 579,1171 C579,1199.16652 556.166522,1222 528,1222 C499.833478,1222 477,1199.16652 477,1171 C477,1142.83348 499.833478,1120 528,1120 Z M529.395958,1161.67323 L520.452453,1162.66601 C518.466725,1171.2711 516.974267,1176.40073 513,1181.03466 L513,1181.03466 L514.960432,1182.99215 C519.641579,1177.76423 521.04269,1171.76538 522.717841,1165.23855 L522.717841,1165.23855 L528.364448,1164.61227 L534.403141,1170.64622 L533.776365,1176.28839 C527.244402,1177.96222 521.239436,1179.36223 516.008807,1184.0397 L516.008807,1184.0397 L517.969239,1186 C522.605415,1182.02886 527.740482,1180.53897 536.35233,1178.5534 L536.35233,1178.5534 L537.345897,1169.61692 L529.395958,1161.67323 Z M527.408825,1171.60109 C526.703141,1170.87101 525.65813,1170.57822 524.675442,1170.83523 C523.692754,1171.09225 522.925319,1171.85908 522.6681,1172.841 C522.410882,1173.82291 522.70391,1174.8671 523.434558,1175.57223 L523.434558,1175.57223 C524.541198,1176.62108 526.281671,1176.5985 527.359289,1175.52135 C528.436907,1174.4442 528.458882,1172.70508 527.408825,1171.60109 Z M532.874144,1157.20499 C532.685873,1157.01738 532.407745,1156.95202 532.155525,1157.03613 C531.903306,1157.12023 531.720202,1157.33939 531.682426,1157.60238 L531.682426,1157.60238 L531.384497,1159.68765 L539.33303,1167.62994 L541.404484,1167.30697 C541.666222,1167.26661 541.883016,1167.08263 541.96525,1166.83108 C542.047483,1166.57954 541.981184,1166.30316 541.793759,1166.11619 L541.793759,1166.11619 Z" id="Sketching-Icon"></path>
        </g>
    </g>
</svg>