<?xml version="1.0" encoding="UTF-8"?>
<svg width="102px" height="102px" viewBox="0 0 102 102" version="1.1" xmlns="http://www.w3.org/2000/svg" xmlns:xlink="http://www.w3.org/1999/xlink">
    <title>Finalizing Icon</title>
    <g id="Landing-page" stroke="none" stroke-width="1" fill="none" fill-rule="evenodd">
        <g id="Landing-Page-1" transform="translate(-909.000000, -1120.000000)" fill="#403E3B">
            <path d="M960,1120 C988.166522,1120 1011,1142.83348 1011,1171 C1011,1199.16652 988.166522,1222 960,1222 C931.833478,1222 909,1199.16652 909,1171 C909,1142.83348 931.833478,1120 960,1120 Z M953.555556,1157 L948,1164 L948,1185 L959.111111,1185 L959.111111,1164 L953.555556,1157 Z M971.611111,1159.8 L963.277778,1159.8 C962.510716,1159.8 961.888889,1160.4268 961.888889,1161.2 L961.888889,1161.2 L961.888889,1183.6 C961.888889,1184.3732 962.510716,1185 963.277778,1185 L963.277778,1185 L971.611111,1185 C972.378173,1185 973,1184.3732 973,1183.6 L973,1183.6 L973,1179.4 L970.222222,1179.4 L970.222222,1176.6 L973,1176.6 L973,1173.8 L968.833333,1173.8 L968.833333,1171 L973,1171 L973,1168.2 L970.222222,1168.2 L970.222222,1165.4 L973,1165.4 L973,1161.2 C973,1160.4268 972.378173,1159.8 971.611111,1159.8 L971.611111,1159.8 Z M956.333333,1179.4 L956.333333,1182.2 L950.777778,1182.2 L950.777778,1179.4 L956.333333,1179.4 Z" id="Finalizing-Icon"></path>
        </g>
    </g>
</svg>