<?xml version="1.0" encoding="UTF-8"?>
<svg width="512px" height="44px" viewBox="0 0 512 44" version="1.1" xmlns="http://www.w3.org/2000/svg" xmlns:xlink="http://www.w3.org/1999/xlink">
    <title>Wishbone Logotype Dark</title>
    <g id="Wishbone-Logotype-Dark" stroke="none" stroke-width="1" fill="none" fill-rule="evenodd">
        <path d="M80.0854823,11.8620483 C83.595199,11.8620483 86.423508,12.7563381 88.5704092,14.5449177 C90.7173104,16.3334974 91.8654358,18.7716138 92.0147855,21.859267 L85.630088,21.859267 C85.5180757,20.4660576 84.9580146,19.3552556 83.9499044,18.5268608 C82.9417943,17.698466 81.5789787,17.2842686 79.8614578,17.2842686 C78.1812742,17.2842686 76.8931335,17.6043302 75.9970356,18.2444535 C75.1009377,18.8845767 74.6528888,19.7317986 74.6528888,20.7861193 C74.6528888,21.614514 74.9515881,22.3111187 75.5489867,22.8759333 C76.1463853,23.440748 76.8744648,23.8831861 77.7332253,24.2032477 C78.5919858,24.5233093 79.8614578,24.9280931 81.5416413,25.4175991 C83.7818861,26.020068 85.6207536,26.6319505 87.058244,27.2532466 C88.4957344,27.8745427 89.7372033,28.7876597 90.7826509,29.9925975 C91.8280984,31.1975354 92.3694909,32.7978434 92.4068283,34.7935217 C92.4068283,36.5632742 91.9214419,38.1447551 90.9506692,39.5379645 C89.9798965,40.9311739 88.6077466,42.0231488 86.8342195,42.8138893 C85.0606924,43.6046298 82.9791317,44 80.5895373,44 C78.1626055,44 75.9877013,43.5528551 74.0648245,42.6726857 C72.1419478,41.7878094 70.6204482,40.5828716 69.5003259,39.0578721 C68.3802035,37.5328726 67.7828049,35.8290152 67.7081301,33.9462998 L74.3168521,33.9462998 C74.4288643,35.2642006 75.054266,36.3655891 76.193057,37.2504653 C77.3318481,38.1353416 78.7600041,38.5777797 80.4775251,38.5777797 C82.2697209,38.5777797 83.6605395,38.2294773 84.6499809,37.5328726 C85.6394223,36.8362679 86.134143,35.9419781 86.134143,34.8500032 C86.134143,33.6827197 85.5834162,32.8166706 84.4819625,32.251856 C83.3805089,31.6870414 81.6349849,31.0657453 79.2453905,30.3879677 C76.9304709,29.7478445 75.0449316,29.1265484 73.5887725,28.5240795 C72.1326134,27.9216106 70.8724758,26.99908 69.8083595,25.7564879 C68.7442433,24.5138957 68.2121852,22.8759333 68.2121852,20.8426007 C68.2121852,19.1858112 68.6975715,17.6702253 69.6683442,16.295843 C70.639117,14.9214608 72.0299356,13.8388995 73.8408001,13.048159 C75.6516646,12.2574185 77.7332253,11.8620483 80.0854823,11.8620483 Z M244.406033,11.8620483 C247.318352,11.8620483 249.913302,12.5021715 252.190884,13.782418 C254.468466,15.0626645 256.241993,16.8606577 257.511465,19.1763976 C258.780937,21.4921375 259.415673,24.1561798 259.415673,27.1685244 C259.415673,28.335808 259.340998,29.3901286 259.191649,30.3314863 L235.613073,30.3314863 C235.79976,32.8166706 236.709859,34.8123489 238.357373,36.3185212 C240.000219,37.8246935 242.016439,38.5777797 244.406033,38.5777797 C247.841075,38.5777797 250.268007,37.1280888 251.686829,34.2287071 L258.575581,34.2287071 C257.642146,37.0904345 255.952628,39.4344152 253.507028,41.2606491 C251.061427,43.086883 248.027762,44 244.406033,44 C241.456378,44 238.814756,43.331636 236.481168,41.9949081 C234.147579,40.6581802 232.318046,38.7754648 230.992568,36.3467619 C229.66709,33.9180591 229.004351,31.1033996 229.004351,27.9027834 C229.004351,24.7021673 229.648421,21.8875078 230.936562,19.4588049 C232.224703,17.0301021 234.035567,15.1568002 236.369155,13.8388995 C238.702744,12.5209987 241.381703,11.8620483 244.406033,11.8620483 Z M178.318347,11.861107 C181.268003,11.861107 183.937628,12.5200573 186.327222,13.8379581 C188.716816,15.1558589 190.602356,17.0385743 191.98384,19.4861043 C193.365324,21.9336343 194.056066,24.7388802 194.056066,27.9018421 C194.056066,31.0648039 193.346655,33.8700498 191.927834,36.3175799 C190.509012,38.7651099 188.576801,40.6572388 186.131201,41.9939668 C183.6856,43.3306947 180.987972,43.9990586 178.038316,43.9990586 C175.125998,43.9990586 172.493711,43.3306947 170.141454,41.9939668 C167.789197,40.6572388 165.940995,38.7745234 164.596848,36.3458206 C163.252701,33.9171177 162.580628,31.1024582 162.580628,27.9018421 C162.580628,24.7388802 163.27137,21.9336343 164.652854,19.4861043 C166.034338,17.0385743 167.919878,15.1558589 170.309472,13.8379581 C172.699066,12.5200573 175.368691,11.861107 178.318347,11.861107 Z M499.230605,11.6916626 C502.927009,11.6916626 505.876664,12.6236067 508.079572,14.4874949 C510.282479,16.3513832 511.495945,18.8648082 511.719969,22.0277701 L504.21515,22.0277701 C504.103137,20.7851779 503.585081,19.7967523 502.674981,19.0624933 C501.760215,18.3282343 500.537414,17.9611048 499.006581,17.9611048 C497.583092,17.9611048 496.49564,18.224685 495.730223,18.7518453 C494.964806,19.2790056 494.582097,20.0132646 494.582097,20.9546223 C494.582097,22.0089429 495.104821,22.8090969 496.150268,23.3550844 C497.191049,23.9010719 498.819893,24.4564729 501.022801,25.0212875 C503.263046,25.5861021 505.111247,26.1697439 506.567407,26.7722128 C508.023566,27.3746818 509.283703,28.3066259 510.34782,29.5680452 C511.411936,30.8294645 511.957995,32.4956676 512,34.5666545 C512,36.3740613 511.505279,37.9931966 510.515838,39.4240602 C509.526396,40.8549239 508.107575,41.9751396 506.259373,42.7847072 C504.411171,43.5942748 502.254935,43.9990586 499.790666,43.9990586 C497.251722,43.9990586 494.97414,43.5377934 492.95792,42.6152628 C490.937032,41.6927323 489.345525,40.4407266 488.169397,38.8592456 C486.993268,37.2777647 486.349198,35.5268394 486.237186,33.6064697 L494.134048,33.6064697 C494.278731,34.8114075 494.871462,35.8092467 495.898241,36.5999872 C496.92502,37.3907276 498.203826,37.7860979 499.73466,37.7860979 C501.223489,37.7860979 502.390284,37.4848634 503.235042,36.8823945 C504.075134,36.2799255 504.49518,35.5080122 504.49518,34.5666545 C504.49518,33.5499882 503.977124,32.7874885 502.955012,32.2791553 C501.928233,31.7708222 500.294721,31.2154212 498.054477,30.6129522 C495.739557,30.0481376 493.840016,29.4644958 492.369856,28.8620269 C490.895028,28.259558 489.625556,27.3370274 488.561439,26.0944353 C487.497323,24.8518431 486.965265,23.1762264 486.965265,21.0675852 C486.965265,19.335487 487.455319,17.7540061 488.449427,16.3231424 C489.438869,14.8922787 490.85769,13.7626495 492.701225,12.9342547 C494.554094,12.10586 496.728998,11.6916626 499.230605,11.6916626 Z M340.340314,11.6916626 C342.655233,11.6916626 344.685455,12.1623414 346.421645,13.1036991 C348.157834,14.0450568 349.548653,15.2311675 350.589433,16.6620312 L350.589433,12.1999957 L358.490963,12.1999957 L358.490963,43.4907255 L350.589433,43.4907255 L350.589433,38.9157271 C349.581323,40.3842451 348.195172,41.5985965 346.421645,42.5587814 C344.643451,43.5189662 342.599227,43.9990586 340.284308,43.9990586 C337.675356,43.9990586 335.290429,43.3212811 333.143528,41.965726 C330.996626,40.6101709 329.302441,38.6992148 328.046971,36.2328577 C326.800835,33.7665005 326.175433,30.9330138 326.175433,27.7323977 C326.175433,24.5694358 326.800835,21.7641899 328.046971,19.3166599 C329.302441,16.8691299 330.996626,14.9864145 333.143528,13.6685137 C335.290429,12.350613 337.694025,11.6916626 340.340314,11.6916626 Z M135.307048,1.69444385 L135.307048,17.00092 C136.389833,15.4947477 137.873995,14.2615691 139.759535,13.3013842 C141.645074,12.3411994 143.745303,11.861107 146.060223,11.861107 C148.785854,11.861107 151.250123,12.5200573 153.453031,13.8379581 C155.655938,15.1558589 157.392128,17.0291607 158.6616,19.4578635 C159.931072,21.8865664 160.565808,24.6635716 160.565808,27.7888791 C160.565808,30.9141867 159.931072,33.710019 158.6616,36.1763762 C157.392128,38.6427334 155.646604,40.5631031 153.425028,41.9374853 C151.203452,43.3118675 148.748517,43.9990586 146.060223,43.9990586 C143.670629,43.9990586 141.55173,43.5283798 139.703529,42.5870221 C137.855327,41.6456644 136.389833,40.4407266 135.307048,38.9722086 L135.307048,43.4907255 L128.922351,43.4907255 L128.922351,1.69444385 L135.307048,1.69444385 Z M449.892015,11.6907212 C452.841671,11.6907212 455.478625,12.3308444 457.812214,13.6110909 C460.145802,14.8913374 461.961334,16.7081577 463.244807,19.061552 C464.537615,21.4149462 465.177018,24.1166428 465.177018,27.1666417 C465.177018,28.2962709 465.107011,29.3129372 464.952994,30.2166406 L442.270516,30.2166406 C442.457203,32.4758991 443.241288,34.2456516 444.622773,35.525898 C446.004257,36.8061445 447.703109,37.4462677 449.723997,37.4462677 C452.636315,37.4462677 454.703874,36.1848484 455.940676,33.6620098 L464.392933,33.6620098 C463.501502,36.6743544 461.783981,39.1501252 459.245037,41.089322 C456.701426,43.0332256 453.588419,43.9981173 449.892015,43.9981173 C446.900355,43.9981173 444.221396,43.3297533 441.85047,41.9930254 C439.479544,40.6562975 437.631342,38.7641685 436.310531,36.3166385 C434.985053,33.8691085 434.322314,31.0450354 434.322314,27.8444192 C434.322314,24.6108556 434.975719,21.7679553 436.282528,19.3157185 C437.584671,16.8681885 439.418871,14.9901799 441.771128,13.6675724 C444.123385,12.3543784 446.830347,11.6907212 449.892015,11.6907212 Z M6.77207315,4.2365803 L14.8416214,36.2050876 L23.5739087,4.2365803 L30.747359,4.2365803 L38.863579,36.0356432 L46.9891333,4.2365803 L53.8172126,4.2365803 L42.2846194,43.4911962 L35.0598301,43.4911962 L26.8829368,13.7819473 L18.1973213,43.4911962 L11.0285381,43.5476776 L-1.20792265e-13,4.2365803 L6.77207315,4.2365803 Z M484.888838,11.7490854 L484.888838,20.0518603 L482.816612,20.0518603 C480.35701,20.0518603 478.494806,20.635502 477.24867,21.8027856 C475.9932,22.9700691 475.367798,25.0034017 475.367798,27.9027834 L475.367798,43.4916668 L467.531609,43.4916668 L467.531609,12.2009371 L475.367798,12.2009371 L475.367798,17.0583428 C476.375908,15.4015532 477.692052,14.1024796 479.316229,13.1611219 C480.945074,12.2197642 482.797943,11.7490854 484.888838,11.7490854 Z M212.594091,11.8615776 C215.021023,11.8615776 217.195928,12.3699108 219.118804,13.3865771 C221.041681,14.4032434 222.544512,15.9094157 223.627297,17.905094 C224.710082,19.9007723 225.251474,22.310648 225.251474,25.1347211 L225.251474,43.4911962 L218.922783,43.4911962 L218.922783,26.094906 C218.922783,23.3084872 218.232041,21.1716052 216.850556,19.6842601 C215.469072,18.1969149 213.583533,17.4532423 211.193939,17.4532423 C208.804344,17.4532423 206.90947,18.1969149 205.509317,19.6842601 C204.109165,21.1716052 203.409088,23.3084872 203.409088,26.094906 L203.409088,43.4911962 L197.024391,43.4911962 L197.024391,12.3699108 L203.409088,12.3699108 L203.409088,15.9282429 C204.454536,14.6479964 205.789348,13.6501572 207.413526,12.9347254 C209.037703,12.2192936 210.764558,11.8615776 212.594091,11.8615776 Z M379.038675,11.7490854 L379.038675,20.0518603 L376.966448,20.0518603 C374.506846,20.0518603 372.644643,20.635502 371.398507,21.8027856 C370.143036,22.9700691 369.517635,25.0034017 369.517635,27.9027834 L369.517635,43.4916668 L361.681445,43.4916668 L361.681445,12.2009371 L369.517635,12.2009371 L369.517635,17.0583428 C370.525745,15.4015532 371.841888,14.1024796 373.466066,13.1611219 C375.09491,12.2197642 376.94778,11.7490854 379.038675,11.7490854 Z M103.441434,1.69491453 L103.441434,15.9847243 C104.524219,14.6668236 105.896369,13.6501572 107.557883,12.9347254 C109.219398,12.2192936 111.039597,11.8615776 113.01848,11.8615776 C115.370737,11.8615776 117.470966,12.3699108 119.319168,13.3865771 C121.16737,14.4032434 122.623529,15.9094157 123.687646,17.905094 C124.751762,19.9007723 125.28382,22.310648 125.28382,25.1347211 L125.28382,43.4911962 L118.955129,43.4911962 L118.955129,26.094906 C118.955129,23.3084872 118.264386,21.1716052 116.882902,19.6842601 C115.501418,18.1969149 113.615879,17.4532423 111.226284,17.4532423 C108.83669,17.4532423 106.941816,18.1969149 105.541663,19.6842601 C104.14151,21.1716052 103.441434,23.3084872 103.441434,26.094906 L103.441434,43.4911962 L97.0567363,43.4911962 L97.0567363,1.69491453 L103.441434,1.69491453 Z M63.2295075,12.3694401 L63.2295075,43.4907255 L56.84481,43.4907255 L56.84481,12.3694401 L63.2295075,12.3694401 Z M311.890139,4.06619456 C314.914469,4.06619456 317.490751,4.59335487 319.618983,5.64767549 C321.747216,6.70199611 323.34339,8.15168696 324.407506,9.99674804 C325.471623,11.8418091 325.999014,13.9316232 325.999014,16.2661903 C325.999014,18.3748315 325.50896,20.3516827 324.519519,22.1967438 C323.530077,24.0418048 321.980575,25.52915 319.871011,26.6587792 C317.761447,27.7884085 315.101156,28.3532231 311.890139,28.3532231 L305.337423,28.3532231 L305.337423,43.4902548 L297.496567,43.4902548 L297.496567,4.06619456 L311.890139,4.06619456 Z M392.317259,4.46203547 L392.317259,12.1999957 L399.262017,12.1999957 L399.262017,18.6953638 L392.317259,18.6953638 L392.317259,33.8323955 C392.317259,34.8867162 392.569286,35.6492159 393.073341,36.1198947 C393.577396,36.5905736 394.426822,36.825913 395.62162,36.825913 L399.262017,36.825913 L399.262017,43.4907255 L394.333479,43.4907255 C387.724757,43.4907255 384.420396,40.252455 384.420396,33.7759141 L384.420396,18.6953638 L380.723992,18.6953638 L380.723992,12.1999957 L384.420396,12.1999957 L384.420396,4.46203547 L392.317259,4.46203547 Z M419.868535,11.7476733 C423.564939,11.7476733 426.556599,12.9243705 428.829514,15.2777647 C431.107096,17.6311589 432.245887,20.9164973 432.245887,25.1337798 L432.245887,43.4902548 L424.409698,43.4902548 L424.409698,26.2069275 C424.409698,23.7217432 423.788963,21.8107871 422.556829,20.4740592 C421.329361,19.1373313 419.644511,18.4689673 417.516278,18.4689673 C415.350708,18.4689673 413.642522,19.1373313 412.396385,20.4740592 C411.140915,21.8107871 410.515513,23.7217432 410.515513,26.2069275 L410.515513,43.4902548 L402.674657,43.4902548 L402.674657,12.199525 L410.515513,12.199525 L410.515513,16.0967459 C411.560961,14.7411908 412.895773,13.6774566 414.524618,12.9055433 C416.144128,12.13363 417.92699,11.7476733 419.868535,11.7476733 Z M144.66007,17.4527717 C143.054561,17.4527717 141.533062,17.866969 140.095571,18.6953638 C138.658081,19.5237586 137.500621,20.7286964 136.623192,22.3101774 C135.745763,23.8916583 135.307048,25.7555465 135.307048,27.9018421 C135.307048,30.0481376 135.745763,31.9214394 136.623192,33.5217475 C137.500621,35.1220556 138.658081,36.336407 140.095571,37.1648018 C141.533062,37.9931966 143.054561,38.4073939 144.66007,38.4073939 C146.302916,38.4073939 147.843084,37.983783 149.280575,37.136561 C150.718065,36.2893391 151.875525,35.0561605 152.752954,33.4370253 C153.630383,31.8178901 154.069098,29.9351747 154.069098,27.7888791 C154.069098,25.6425836 153.630383,23.7881089 152.752954,22.2254552 C151.875525,20.6628014 150.718065,19.4766907 149.280575,18.6671231 C147.843084,17.8575555 146.302916,17.4527717 144.66007,17.4527717 Z M178.206335,17.4527717 C176.563489,17.4527717 175.041989,17.8481419 173.641836,18.6388824 C172.241683,19.4296228 171.130895,20.6063199 170.309472,22.1689737 C169.488049,23.7316275 169.077337,25.6425836 169.077337,27.9018421 C169.077337,31.2530755 169.926764,33.8418091 171.625616,35.668043 C173.324468,37.494277 175.462035,38.4073939 178.038316,38.4073939 C179.681163,38.4073939 181.221331,38.0120237 182.658821,37.2212832 C184.096312,36.4305428 185.263106,35.2444321 186.159204,33.6629512 C187.055301,32.0814702 187.50335,30.1611005 187.50335,27.9018421 C187.50335,25.6425836 187.07397,23.7316275 186.21521,22.1689737 C185.356449,20.6063199 184.217658,19.4296228 182.798836,18.6388824 C181.380015,17.8481419 179.849181,17.4527717 178.206335,17.4527717 Z M281.816254,8.98055241 L281.816254,19.937956 L292.396743,19.937956 L292.396743,26.8286943 L281.816254,26.8286943 L281.816254,37.7860979 L274.423446,37.7860979 L274.423446,26.8286943 L263.83829,26.8286943 L263.83829,19.937956 L274.423446,19.937956 L274.423446,8.98055241 L281.816254,8.98055241 Z M342.361201,18.6388824 C340.900375,18.6388824 339.556228,18.9965983 338.324093,19.7120301 C337.096626,20.427462 336.093183,21.472369 335.332433,22.8467512 C334.567016,24.2211335 334.184308,25.8496823 334.184308,27.7323977 C334.184308,29.6151131 334.567016,31.262489 335.332433,32.6745256 C336.093183,34.0865621 337.10596,35.1691235 338.352097,35.9222096 C339.607567,36.6752958 340.937712,37.0518389 342.361201,37.0518389 C343.812693,37.0518389 345.175509,36.6847094 346.449648,35.9504504 C347.714453,35.2161914 348.722563,34.1618707 349.469311,32.7874885 C350.216059,31.4131063 350.589433,29.7657303 350.589433,27.8453606 C350.589433,25.9249909 350.216059,24.2776149 349.469311,22.9032327 C348.722563,21.5288505 347.714453,20.4745299 346.449648,19.7402709 C345.175509,19.0060119 343.812693,18.6388824 342.361201,18.6388824 Z M244.126003,17.2842686 C241.923096,17.2842686 240.037556,17.9902869 238.469385,19.4023234 C236.901214,20.81436 235.967778,22.7253161 235.669079,25.1351918 L252.750945,25.1351918 C252.713608,22.7629704 251.873516,20.8614279 250.23067,19.4305642 C248.583156,17.9997005 246.552935,17.2842686 244.126003,17.2842686 Z M449.663323,18.1860893 C447.721778,18.1860893 446.088266,18.7791446 444.762788,19.9652553 C443.43731,21.151366 442.625221,22.798742 442.331189,24.9073832 L457.056131,24.9073832 C457.018794,22.8740506 456.290714,21.2455018 454.871892,20.0217368 C453.457738,18.7979718 451.716881,18.1860893 449.663323,18.1860893 Z M311.554102,10.5050812 L305.337423,10.5050812 L305.337423,21.9708179 L311.554102,21.9708179 C313.719672,21.9708179 315.320514,21.4718983 316.370629,20.4740592 C317.416076,19.47622 317.9388,18.0735971 317.9388,16.2661903 C317.9388,12.4254509 315.810567,10.5050812 311.554102,10.5050812 Z M60.0931649,0 C61.2132872,0 62.1653912,0.395370232 62.9494769,1.1861107 C63.7335626,1.97685116 64.1256054,2.95586316 64.1256054,4.1231467 C64.1256054,5.29043024 63.7335626,6.26944225 62.9494769,7.06018271 C62.1653912,7.85092317 61.2132872,8.2462934 60.0931649,8.2462934 C58.9357051,8.2462934 57.9649324,7.85092317 57.1808467,7.06018271 C56.3967611,6.26944225 56.0047182,5.29043024 56.0047182,4.1231467 C56.0047182,2.95586316 56.3967611,1.97685116 57.1808467,1.1861107 C57.9649324,0.395370232 58.9357051,0 60.0931649,0 Z" id="Combined-Shape" fill="#1B1A1A"></path>
    </g>
</svg>